<svg width="19" height="24" viewBox="0 0 19 24" fill="none" xmlns="http://www.w3.org/2000/svg">
<path d="M9.62455 7.22356C8.74855 7.22356 7.39255 6.22756 5.96455 6.26356C4.08055 6.28756 2.35255 7.35556 1.38055 9.04756C-0.57545 12.4436 0.87655 17.4596 2.78455 20.2196C3.72055 21.5636 4.82455 23.0756 6.28855 23.0276C7.69255 22.9676 8.22055 22.1156 9.92455 22.1156C11.6166 22.1156 12.0965 23.0276 13.5846 22.9916C15.0966 22.9676 16.0566 21.6236 16.9806 20.2676C18.0486 18.7076 18.4926 17.1956 18.5166 17.1116C18.4806 17.0996 15.5766 15.9836 15.5406 12.6236C15.5166 9.81556 17.8326 8.47156 17.9406 8.41156C16.6206 6.47956 14.5926 6.26356 13.8846 6.21556C12.0366 6.07156 10.4886 7.22356 9.62455 7.22356ZM12.7446 4.39156C13.5246 3.45556 14.0406 2.14756 13.8966 0.851562C12.7806 0.899563 11.4366 1.59556 10.6326 2.53156C9.91255 3.35956 9.28855 4.69156 9.45655 5.96356C10.6926 6.05956 11.9646 5.32756 12.7446 4.39156Z" fill="#A0A094"/>
</svg>
