<svg width="20" height="12" viewBox="0 0 20 12" fill="none" xmlns="http://www.w3.org/2000/svg">
<path d="M7.56363 11.2167L5.79354 10.7419L6.51496 8.04783C5.4351 7.64957 4.43148 7.06916 3.54771 6.33183L1.57413 8.30633L0.277042 7.00925L2.25154 5.03567C1.13694 3.70078 0.388039 2.09936 0.078125 0.388165L1.88213 0.059082C2.57788 3.91092 5.94754 6.83325 10.0001 6.83325C14.0518 6.83325 17.4224 3.91092 18.1181 0.059082L19.9221 0.387249C19.6126 2.09868 18.864 3.70042 17.7496 5.03567L19.7232 7.00925L18.4261 8.30633L16.4525 6.33183C15.5688 7.06916 14.5652 7.64957 13.4853 8.04783L14.2067 10.7428L12.4366 11.2167L11.7143 8.52175C10.5798 8.71615 9.42047 8.71615 8.28596 8.52175L7.56363 11.2167Z" fill="black"/>
</svg>
