<svg width="22" height="22" viewBox="0 0 22 22" fill="none" xmlns="http://www.w3.org/2000/svg">
<path d="M7.68637 3.00001L10.2934 0.393006C10.4809 0.205535 10.7352 0.10022 11.0004 0.10022C11.2655 0.10022 11.5198 0.205535 11.7074 0.393006L14.3144 3.00001H18.0004C18.2656 3.00001 18.5199 3.10536 18.7075 3.2929C18.895 3.48044 19.0004 3.73479 19.0004 4.00001V7.68601L21.6074 10.293C21.7948 10.4805 21.9002 10.7348 21.9002 11C21.9002 11.2652 21.7948 11.5195 21.6074 11.707L19.0004 14.314V18C19.0004 18.2652 18.895 18.5196 18.7075 18.7071C18.5199 18.8946 18.2656 19 18.0004 19H14.3144L11.7074 21.607C11.5198 21.7945 11.2655 21.8998 11.0004 21.8998C10.7352 21.8998 10.4809 21.7945 10.2934 21.607L7.68637 19H4.00037C3.73516 19 3.4808 18.8946 3.29327 18.7071C3.10573 18.5196 3.00037 18.2652 3.00037 18V14.314L0.393372 11.707C0.205901 11.5195 0.100586 11.2652 0.100586 11C0.100586 10.7348 0.205901 10.4805 0.393372 10.293L3.00037 7.68601V4.00001C3.00037 3.73479 3.10573 3.48044 3.29327 3.2929C3.4808 3.10536 3.73516 3.00001 4.00037 3.00001H7.68637ZM5.00037 5.00001V8.51501L2.51537 11L5.00037 13.485V17H8.51537L11.0004 19.485L13.4854 17H17.0004V13.485L19.4854 11L17.0004 8.51501V5.00001H13.4854L11.0004 2.51501L8.51537 5.00001H5.00037ZM11.0004 15C9.93951 15 8.92209 14.5786 8.17195 13.8284C7.4218 13.0783 7.00037 12.0609 7.00037 11C7.00037 9.93914 7.4218 8.92173 8.17195 8.17158C8.92209 7.42143 9.93951 7.00001 11.0004 7.00001C12.0612 7.00001 13.0787 7.42143 13.8288 8.17158C14.5789 8.92173 15.0004 9.93914 15.0004 11C15.0004 12.0609 14.5789 13.0783 13.8288 13.8284C13.0787 14.5786 12.0612 15 11.0004 15ZM11.0004 13C11.5308 13 12.0395 12.7893 12.4146 12.4142C12.7897 12.0391 13.0004 11.5304 13.0004 11C13.0004 10.4696 12.7897 9.96087 12.4146 9.58579C12.0395 9.21072 11.5308 9.00001 11.0004 9.00001C10.4699 9.00001 9.96123 9.21072 9.58616 9.58579C9.21109 9.96087 9.00037 10.4696 9.00037 11C9.00037 11.5304 9.21109 12.0391 9.58616 12.4142C9.96123 12.7893 10.4699 13 11.0004 13Z" fill="black"/>
</svg>
